<svg width="19" height="20" viewBox="0 0 19 20" fill="none" xmlns="http://www.w3.org/2000/svg">
<path fill-rule="evenodd" clip-rule="evenodd" d="M18.5 9.08122V17.7484C18.5 18.5768 17.8284 19.2484 17 19.2484H13.25C12.4216 19.2484 11.75 18.5768 11.75 17.7484V13.9984C11.75 13.5842 11.4142 13.2484 11 13.2484H8C7.58579 13.2484 7.25 13.5842 7.25 13.9984V17.7484C7.25 18.5768 6.57843 19.2484 5.75 19.2484H2C1.17157 19.2484 0.5 18.5768 0.5 17.7484V9.08122C0.499936 8.66149 0.67573 8.26094 0.984688 7.97684L8.48469 0.900593L8.495 0.89028C9.06719 0.369907 9.94124 0.369907 10.5134 0.89028C10.5166 0.893949 10.5201 0.897394 10.5238 0.900593L18.0238 7.97684C18.3296 8.26243 18.5022 8.66278 18.5 9.08122V9.08122Z" fill="white" stroke="black"/>
</svg>
