<svg width="19" height="20" viewBox="0 0 19 20" fill="none" xmlns="http://www.w3.org/2000/svg">
<path fill-rule="evenodd" clip-rule="evenodd" d="M18.0153 7.97684L10.5153 0.900593C10.5116 0.897394 10.5082 0.893949 10.505 0.89028C9.93281 0.369907 9.05876 0.369907 8.48656 0.89028L8.47625 0.900593L0.984688 7.97684C0.67573 8.26094 0.499936 8.66149 0.5 9.08122V17.7484C0.5 18.5768 1.17157 19.2484 2 19.2484H6.5C7.32843 19.2484 8 18.5768 8 17.7484V13.2484H11V17.7484C11 18.5768 11.6716 19.2484 12.5 19.2484H17C17.8284 19.2484 18.5 18.5768 18.5 17.7484V9.08122C18.5001 8.66149 18.3243 8.26094 18.0153 7.97684ZM17 17.7484H12.5V13.2484C12.5 12.42 11.8284 11.7484 11 11.7484H8C7.17157 11.7484 6.5 12.42 6.5 13.2484V17.7484H2V9.08122L2.01031 9.07184L9.5 1.99841L16.9906 9.06997L17.0009 9.07934L17 17.7484Z" fill="#B58FCC" stroke="black"/>
</svg>
